<svg xmlns="http://www.w3.org/2000/svg" viewBox="0 0 137.08 81.98"><defs><style>.cls-1{fill:#252f3e;}.cls-2{fill:#f90;}</style></defs><g id="Camada_2" data-name="Camada 2"><g id="Camada_1-2" data-name="Camada 1"><g id="Grupo_1771" data-name="Grupo 1771"><g id="amazon-web-services-2"><path id="Caminho_33" data-name="Caminho 33" class="cls-1" d="M38.63,29.77a13.58,13.58,0,0,0,.5,4.06,24.08,24.08,0,0,0,1.46,3.28,2.08,2.08,0,0,1,.32,1A1.81,1.81,0,0,1,40,39.53l-2.87,1.91a2.13,2.13,0,0,1-1.19.41,2.06,2.06,0,0,1-1.36-.63A13.79,13.79,0,0,1,33,39.07c-.45-.77-.91-1.64-1.41-2.69a16.79,16.79,0,0,1-13.4,6.29c-3.83,0-6.88-1.09-9.12-3.28a11.7,11.7,0,0,1-3.37-8.75,11.74,11.74,0,0,1,4.15-9.39c2.78-2.37,6.47-3.56,11.17-3.56a35.58,35.58,0,0,1,4.83.37c1.69.22,3.42.59,5.24,1V15.73c0-3.46-.73-5.88-2.14-7.29S25,6.34,21.49,6.34a20.89,20.89,0,0,0-4.92.59,37.08,37.08,0,0,0-4.93,1.55,12.76,12.76,0,0,1-1.6.59,2.55,2.55,0,0,1-.72.14c-.64,0-1-.45-1-1.41V5.56A2.89,2.89,0,0,1,8.68,4,3.4,3.4,0,0,1,10,3,26.1,26.1,0,0,1,15.7,1,27.48,27.48,0,0,1,22.81.09c5.43,0,9.39,1.23,12,3.7S38.54,10,38.54,15V29.77ZM20.12,36.7a14.75,14.75,0,0,0,4.7-.82A10.11,10.11,0,0,0,29.15,33,7.12,7.12,0,0,0,30.7,30a16.49,16.49,0,0,0,.46-4V24.16a40.24,40.24,0,0,0-4.2-.77,34,34,0,0,0-4.28-.27c-3.06,0-5.29.59-6.8,1.82a6.37,6.37,0,0,0-2.23,5.24A6.36,6.36,0,0,0,15.34,35,6.33,6.33,0,0,0,20.12,36.7Zm36.61,4.93A2.54,2.54,0,0,1,55,41.17a3.7,3.7,0,0,1-1-1.78L43.33,4.15a7.62,7.62,0,0,1-.41-1.82,1,1,0,0,1,.84-1.14,1,1,0,0,1,.25,0h4.47a2.51,2.51,0,0,1,1.78.45,3.79,3.79,0,0,1,.91,1.78L58.83,33.6,65.94,3.42a3.19,3.19,0,0,1,.87-1.78,3.13,3.13,0,0,1,1.82-.45h3.65a2.74,2.74,0,0,1,1.82.45A3.1,3.1,0,0,1,75,3.42L82.17,34,90.06,3.42A3.93,3.93,0,0,1,91,1.64a3,3,0,0,1,1.78-.45H97a1,1,0,0,1,1.14.86,1.31,1.31,0,0,1,0,.28,4.55,4.55,0,0,1-.09.73,7.74,7.74,0,0,1-.32,1.14l-11,35.24a3.54,3.54,0,0,1-1,1.78,2.92,2.92,0,0,1-1.73.45H80.12a2.76,2.76,0,0,1-1.83-.45,3.22,3.22,0,0,1-.86-1.83L70.36,10l-7,29.36a3.56,3.56,0,0,1-.87,1.82,2.79,2.79,0,0,1-1.82.46Zm58.58,1.23a30.75,30.75,0,0,1-7-.82,20.78,20.78,0,0,1-5.24-1.83,2.64,2.64,0,0,1-1.69-2.55V35.33c0-.95.37-1.41,1-1.41a2.52,2.52,0,0,1,.82.14c.28.09.69.27,1.14.45a24.46,24.46,0,0,0,5,1.6,26.65,26.65,0,0,0,5.42.55,12.26,12.26,0,0,0,6.66-1.5,4.89,4.89,0,0,0,2.37-4.33,4.46,4.46,0,0,0-1.23-3.19,11.49,11.49,0,0,0-4.6-2.37l-6.61-2.05c-3.33-1-5.79-2.6-7.3-4.65A10.87,10.87,0,0,1,101.82,12a10.3,10.3,0,0,1,1.23-5.07,11.77,11.77,0,0,1,3.29-3.73A14.34,14.34,0,0,1,111.07.78,20,20,0,0,1,116.82,0a22.2,22.2,0,0,1,3.05.18c1,.14,2,.32,3,.5s1.77.46,2.6.73a10.37,10.37,0,0,1,1.91.82,3.88,3.88,0,0,1,1.37,1.14,2.51,2.51,0,0,1,.41,1.5V7c0,1-.37,1.46-1,1.46a4.56,4.56,0,0,1-1.73-.55,20.92,20.92,0,0,0-8.75-1.77,11.72,11.72,0,0,0-6.07,1.27,4.39,4.39,0,0,0-2.14,4.06,4.28,4.28,0,0,0,1.37,3.24,13.67,13.67,0,0,0,5,2.51l6.48,2.05c3.28,1.05,5.65,2.51,7.06,4.38a10.33,10.33,0,0,1,2.1,6.38,11.69,11.69,0,0,1-1.18,5.29,12.29,12.29,0,0,1-3.33,4,14.73,14.73,0,0,1-5.06,2.55,21.81,21.81,0,0,1-6.52,1Z"/><path id="Caminho_34" data-name="Caminho 34" class="cls-2" d="M123.93,65c-15,11.08-36.79,17-55.53,17A100.41,100.41,0,0,1,.61,56.12c-1.42-1.27-.14-3,1.55-2A136.78,136.78,0,0,0,70,72.13a135.43,135.43,0,0,0,51.74-10.58c2.51-1.14,4.65,1.64,2.19,3.46Z"/><path id="Caminho_35" data-name="Caminho 35" class="cls-2" d="M130.18,57.9c-1.92-2.46-12.68-1.18-17.56-.59-1.45.18-1.68-1.09-.36-2.05,8.57-6,22.66-4.29,24.3-2.28s-.46,16.14-8.48,22.88c-1.23,1-2.42.5-1.87-.86C128,70.49,132.09,60.32,130.18,57.9Z"/></g></g></g></g></svg>