<svg xmlns="http://www.w3.org/2000/svg" xmlns:xlink="http://www.w3.org/1999/xlink" viewBox="0 0 157.31 96.35"><defs><style>.cls-1{fill:none;}.cls-2,.cls-4{fill:#689f63;}.cls-3{fill:#333;}.cls-3,.cls-4{fill-rule:evenodd;}.cls-5{clip-path:url(#clip-path);}.cls-6{fill:url(#Gradiente_sem_nome_4);}.cls-7{clip-path:url(#clip-path-2);}.cls-8{fill:url(#Gradiente_sem_nome_2);}.cls-9{clip-path:url(#clip-path-3);}.cls-10{fill:url(#Gradiente_sem_nome_3);}</style><clipPath id="clip-path"><path class="cls-1" d="M57.16,22.26l-15,8.65a1.79,1.79,0,0,0-.91,1.56V49.78a1.79,1.79,0,0,0,.91,1.57l15,8.65A1.83,1.83,0,0,0,59,60l15-8.65a1.81,1.81,0,0,0,.9-1.57V32.47a1.81,1.81,0,0,0-.91-1.56L59,22.26a1.83,1.83,0,0,0-1.81,0"/></clipPath><linearGradient id="Gradiente_sem_nome_4" x1="-894.83" y1="6809.58" x2="-894.82" y2="6809.58" gradientTransform="matrix(63.86, 0, 0, -64.85, 57119.43, 441670.01)" gradientUnits="userSpaceOnUse"><stop offset="0.3" stop-color="#3e863d"/><stop offset="0.5" stop-color="#55934f"/><stop offset="0.8" stop-color="#5aad45"/></linearGradient><clipPath id="clip-path-2"><path class="cls-1" d="M41.64,50.88a1.87,1.87,0,0,0,.54.47L55,58.77,57.17,60a1.8,1.8,0,0,0,1,.24,1.53,1.53,0,0,0,.36-.07l15.8-28.93a2.18,2.18,0,0,0-.42-.33l-9.81-5.67-5.19-3a1.6,1.6,0,0,0-.47-.19Z"/></clipPath><linearGradient id="Gradiente_sem_nome_2" x1="-895.15" y1="6803.39" x2="-895.14" y2="6803.39" gradientTransform="matrix(69.23, 0, 0, -69.47, 61942.91, 472692.8)" gradientUnits="userSpaceOnUse"><stop offset="0.57" stop-color="#3e863d"/><stop offset="0.72" stop-color="#619857"/><stop offset="1" stop-color="#76ac64"/></linearGradient><clipPath id="clip-path-3"><path class="cls-1" d="M57.88,22a1.69,1.69,0,0,0-.72.23L42.22,30.88,58.33,60.22A1.68,1.68,0,0,0,59,60l15-8.65a1.84,1.84,0,0,0,.88-1.24l-16.42-28A1.61,1.61,0,0,0,58,22h-.15"/></clipPath><linearGradient id="Gradiente_sem_nome_3" x1="-890.93" y1="6874.63" x2="-890.92" y2="6874.63" gradientTransform="matrix(32.6, 0, 0, -38.2, 29016.43, 262652.02)" gradientUnits="userSpaceOnUse"><stop offset="0.16" stop-color="#6bbf47"/><stop offset="0.38" stop-color="#79b461"/><stop offset="0.47" stop-color="#75ac64"/><stop offset="0.7" stop-color="#659e5a"/><stop offset="0.9" stop-color="#3e863d"/></linearGradient></defs><g id="Camada_2" data-name="Camada 2"><g id="Camada_1-2" data-name="Camada 1"><g id="Grupo_1768" data-name="Grupo 1768"><g id="Grupo_4" data-name="Grupo 4"><g id="Node.js_logo" data-name="Node.js logo"><path id="Caminho_6" data-name="Caminho 6" class="cls-2" d="M77.75,96.35a3,3,0,0,1-1.49-.4l-4.74-2.81c-.71-.4-.36-.54-.13-.62a9.26,9.26,0,0,0,2.15-1,.34.34,0,0,1,.35,0l3.64,2.16a.49.49,0,0,0,.44,0l14.21-8.2a.43.43,0,0,0,.22-.38V68.76a.47.47,0,0,0-.22-.39L78,60.17a.43.43,0,0,0-.44,0l-14.2,8.19a.44.44,0,0,0-.22.39v16.4a.44.44,0,0,0,.22.38l3.89,2.25c2.11,1,3.4-.19,3.4-1.44V70.15a.4.4,0,0,1,.4-.41h1.81a.41.41,0,0,1,.41.41h0V86.34c0,2.82-1.54,4.44-4.21,4.44a6.08,6.08,0,0,1-3.27-.89L62,87.74a3,3,0,0,1-1.49-2.59V68.75A3,3,0,0,1,62,66.16L76.26,58a3.11,3.11,0,0,1,3,0l14.2,8.21a3,3,0,0,1,1.49,2.59V85.15a3,3,0,0,1-1.49,2.59l-14.2,8.2a3,3,0,0,1-1.5.4"/><path id="Caminho_7" data-name="Caminho 7" class="cls-2" d="M82.14,85.05c-6.21,0-7.52-2.85-7.52-5.24A.41.41,0,0,1,75,79.4h1.84a.4.4,0,0,1,.4.34c.28,1.87,1.11,2.82,4.87,2.82,3,0,4.26-.68,4.26-2.27,0-.91-.36-1.59-5-2-3.89-.39-6.3-1.25-6.3-4.36,0-2.86,2.42-4.57,6.47-4.57,4.55,0,6.8,1.58,7.09,5a.42.42,0,0,1-.11.32.43.43,0,0,1-.3.13H86.39a.42.42,0,0,1-.4-.32c-.44-2-1.51-2.6-4.43-2.6-3.27,0-3.65,1.14-3.65,2,0,1,.45,1.34,4.86,1.92s6.44,1.4,6.44,4.47-2.59,4.87-7.09,4.87m17.3-17.39h.48a.41.41,0,0,0,.46-.36.17.17,0,0,0,0-.07c0-.42-.29-.42-.45-.42h-.49Zm-.58-1.34H99.9c.36,0,1.07,0,1.07.81a.7.7,0,0,1-.58.75c.43,0,.45.31.51.7a3.15,3.15,0,0,0,.16.81h-.65c0-.14-.12-.92-.12-1s-.1-.26-.32-.26h-.53v1.23h-.6Zm-1.27,1.53a2.3,2.3,0,1,0,2.31-2.29h0a2.3,2.3,0,0,0-2.29,2.29m5,0a2.74,2.74,0,1,1-2.74-2.74,2.74,2.74,0,0,1,2.74,2.74"/><path id="Caminho_8" data-name="Caminho 8" class="cls-3" d="M33.76,32.2a1.82,1.82,0,0,0-.91-1.58L17.79,22a1.74,1.74,0,0,0-.83-.24h-.15A1.77,1.77,0,0,0,16,22L.91,30.62A1.84,1.84,0,0,0,0,32.2L0,55.55a.9.9,0,0,0,.45.78.86.86,0,0,0,.9,0l9-5.13a1.84,1.84,0,0,0,.91-1.58V38.72a1.81,1.81,0,0,1,.91-1.57L16,35a1.83,1.83,0,0,1,.91-.25,1.77,1.77,0,0,1,.9.25l3.81,2.19a1.81,1.81,0,0,1,.91,1.58v10.9a1.82,1.82,0,0,0,.92,1.57l8.94,5.13a.88.88,0,0,0,.91,0,1,1,0,0,0,.46-.79Zm71.08,12.16a.45.45,0,0,1-.23.39l-5.17,3a.47.47,0,0,1-.46,0l-5.17-3a.45.45,0,0,1-.23-.39v-6A.44.44,0,0,1,93.8,38L99,35a.45.45,0,0,1,.45,0l5.18,3a.45.45,0,0,1,.23.39ZM106.24.12A.9.9,0,0,0,105,.47a.77.77,0,0,0-.11.45V24a.64.64,0,0,1-.64.63.72.72,0,0,1-.32-.08l-3.78-2.18a1.83,1.83,0,0,0-1.81,0L83.27,31.1a1.82,1.82,0,0,0-.91,1.57v17.4a1.84,1.84,0,0,0,.91,1.58l15.07,8.7a1.85,1.85,0,0,0,1.82,0l15.06-8.71a1.82,1.82,0,0,0,.92-1.57V6.71a1.84,1.84,0,0,0-.94-1.59Zm50.17,38.11a1.83,1.83,0,0,0,.9-1.58V32.44a1.83,1.83,0,0,0-.9-1.58l-15-8.69a1.85,1.85,0,0,0-1.82,0l-15.06,8.7a1.81,1.81,0,0,0-.91,1.57V49.83a1.83,1.83,0,0,0,.92,1.59l15,8.53a1.84,1.84,0,0,0,1.79,0l9.05-5a.92.92,0,0,0,.36-1.24.84.84,0,0,0-.35-.35l-15.16-8.7a.9.9,0,0,1-.45-.78V38.4a.89.89,0,0,1,.45-.79l4.72-2.72a.9.9,0,0,1,.9,0l4.72,2.72a.92.92,0,0,1,.46.79v4.29a.9.9,0,0,0,.9.91.84.84,0,0,0,.46-.13Z"/><path id="Caminho_9" data-name="Caminho 9" class="cls-4" d="M140.31,37.41a.34.34,0,0,1,.34,0l2.89,1.67a.35.35,0,0,1,.18.3v3.34a.35.35,0,0,1-.18.3l-2.89,1.67a.34.34,0,0,1-.34,0L137.42,43a.35.35,0,0,1-.18-.3V39.38a.34.34,0,0,1,.17-.3Z"/><g class="cls-5"><g id="Grupo_1" data-name="Grupo 1"><path id="Caminho_10" data-name="Caminho 10" class="cls-6" d="M90,29.44,47.77,8.74,26.13,52.9,68.34,73.6Z"/></g></g><g class="cls-7"><g id="Grupo_2" data-name="Grupo 2"><path id="Caminho_12" data-name="Caminho 12" class="cls-8" d="M23.39,35.56,53.2,75.9,92.62,46.78,62.81,6.43Z"/></g></g><g class="cls-9"><g id="Grupo_3" data-name="Grupo 3"><path id="Caminho_14" data-name="Caminho 14" class="cls-10" d="M42.22,22v38.2h32.6V22Z"/></g></g></g></g></g></g></g></svg>