<svg xmlns="http://www.w3.org/2000/svg" viewBox="0 0 157.67 117.17"><defs><style>.cls-1{fill:#00c492;}.cls-2{fill:#008776;}.cls-3{fill:#2d4a5d;}</style></defs><g id="Camada_2" data-name="Camada 2"><g id="Camada_1-2" data-name="Camada 1"><g id="Grupo_1770" data-name="Grupo 1770"><g id="nuxtjs-icon"><path id="Caminho_30" data-name="Caminho 30" class="cls-1" d="M47.93,113.16a5.51,5.51,0,0,1-.31-.65,8.16,8.16,0,0,1-.56-4.63H9.78L65.18,10.4l18.18,32L88.64,33,72.79,5.11A9.7,9.7,0,0,0,65.05,0a8.62,8.62,0,0,0-7.51,5.17L1.42,103.84a9.92,9.92,0,0,0-.49,9.31,8.6,8.6,0,0,0,8.21,4h47a8.61,8.61,0,0,1-8.21-4Z"/><path id="Caminho_31" data-name="Caminho 31" class="cls-2" d="M156,103.84,109.88,22.6a9.7,9.7,0,0,0-7.77-5.17,8.59,8.59,0,0,0-7.51,5.16L88.64,33l5.3,9.33,8.22-14.54,45.62,80.05H130.43a7.76,7.76,0,0,1-.36,3.94,5.87,5.87,0,0,1-.36.81l-.15.3a10,10,0,0,1-8.36,4.19h27.14a9.9,9.9,0,0,0,8.36-4.19,8.61,8.61,0,0,0-.71-9.09Z"/><path id="Caminho_32" data-name="Caminho 32" class="cls-3" d="M129.56,112.93l.15-.3a5.87,5.87,0,0,0,.36-.81,7.77,7.77,0,0,0,.36-3.94,11.9,11.9,0,0,0-1.51-4L94,42.37,88.64,33l-5.31,9.33L48.41,103.84a12.59,12.59,0,0,0-1.35,4,8.28,8.28,0,0,0,.51,4.64,5.46,5.46,0,0,0,.32.64,8.64,8.64,0,0,0,8.21,4h65.05a10,10,0,0,0,8.41-4.19ZM88.64,51.7l31.93,56.18H56.72Z"/></g></g></g></g></svg>