<svg xmlns="http://www.w3.org/2000/svg" viewBox="0 0 117.17 117.17"><defs><style>.cls-1{fill:#f7df1e;}</style></defs><g id="Camada_2" data-name="Camada 2"><g id="Camada_1-2" data-name="Camada 1"><g id="javascript"><path id="Caminho_36" data-name="Caminho 36" class="cls-1" d="M0,0H117.17V117.17H0Z"/><path id="Caminho_37" data-name="Caminho 37" d="M30.81,97.91l9-5.43c1.73,3.07,3.3,5.66,7.08,5.66,3.62,0,5.9-1.41,5.9-6.92V53.79h11V91.38c0,11.4-6.68,16.6-16.44,16.6-8.81,0-13.92-4.56-16.51-10.07m38.93-1.18,9-5.19c2.36,3.86,5.42,6.69,10.85,6.69C94.12,98.23,97,96,97,92.8c0-3.78-3-5.11-8-7.31L86.26,84.3c-8-3.38-13.21-7.62-13.21-16.59,0-8.26,6.29-14.55,16.12-14.55,7,0,12,2.44,15.65,8.81l-8.57,5.5c-1.89-3.38-3.94-4.71-7.08-4.71s-5.27,2-5.27,4.71c0,3.3,2,4.65,6.76,6.69l2.76,1.18c9.35,4,14.62,8.1,14.62,17.3,0,9.91-7.78,15.34-18.24,15.34C79.57,108,73,103.1,69.74,96.73"/></g></g></g></svg>