<svg id="Ñëîé_1" data-name="Ñëîé 1" xmlns="http://www.w3.org/2000/svg" viewBox="0 0 50.85 72.24"><defs><style>.cls-1{fill:#a5d1f5;}.cls-2{fill:#0959a7;}.cls-3{fill:#fffdfd;}</style></defs><title>Prancheta 11</title><path class="cls-1" d="M50.32,72.24V63.61c0-8.13-1-11.94-10.74-14.78l-1.76-.51c-.36,5.41-5.68,9.7-12.2,9.7s-11.91-4.35-12.21-9.81l-2.13.62C1.55,51.67.53,55.48.53,63.61v8.63Z"/><path class="cls-2" d="M50.85,72.24H49.79V63.61c0-8-.94-11.52-10.36-14.27L38.29,49c-.75,5.4-6.17,9.54-12.67,9.54s-12-4.18-12.68-9.65l-1.51.44C2,52.09,1.06,55.62,1.06,63.61v8.63H0V63.61c0-8.19,1.1-12.37,11.13-15.29l2.77-.8,0,.67c.29,5.21,5.42,9.3,11.68,9.3s11.33-4,11.67-9.2l.05-.66,2.38.69c10,2.92,11.13,7.1,11.13,15.29Z"/><path class="cls-3" d="M32.79,46.88l.07-17.79a2.46,2.46,0,0,0-2.38-2.57l-9.55.12a2.54,2.54,0,0,0-2.4,2.62l-.07,17.5-5.05,1.45c.3,5.46,5.64,9.81,12.21,9.81s11.84-4.29,12.2-9.7Z"/><path class="cls-2" d="M25.62,58.55c-6.83,0-12.42-4.52-12.74-10.31a.53.53,0,0,1,.38-.54l4.67-1.34L18,29.26a3.08,3.08,0,0,1,2.92-3.15L30.48,26a2.78,2.78,0,0,1,2,.82,3.24,3.24,0,0,1,.93,2.28l-.07,17.39L38,47.81a.53.53,0,0,1,.38.55C38,54.08,32.38,58.55,25.62,58.55ZM14,48.61c.54,5,5.56,8.88,11.65,8.88s11-3.82,11.63-8.78l-4.6-1.32a.55.55,0,0,1-.39-.52l.07-17.78a2.13,2.13,0,0,0-.61-1.52,1.8,1.8,0,0,0-1.23-.52l-9.55.12a2,2,0,0,0-1.88,2.1L19,46.76a.53.53,0,0,1-.39.51Z"/><path class="cls-2" d="M37.1,27.16a3.45,3.45,0,0,1-2.43-1.05,5.4,5.4,0,0,1-1.47-3.86c0-2.72,1.78-4.95,4-5a3.43,3.43,0,0,1,2.47,1.05,5.42,5.42,0,0,1,1.47,3.86c0,2.72-1.79,4.95-4,5Zm.07-8.83c-1.6,0-2.9,1.78-2.91,3.93a4.34,4.34,0,0,0,1.16,3.09,2.46,2.46,0,0,0,1.71.74c1.59,0,2.9-1.77,2.9-3.92a4.29,4.29,0,0,0-1.15-3.09,2.5,2.5,0,0,0-1.71-.75Z"/><path class="cls-2" d="M14.48,26.35A3.48,3.48,0,0,1,12,25.29a5.4,5.4,0,0,1-1.47-3.85c0-2.72,1.79-5,4-5A3.41,3.41,0,0,1,17,17.51a5.38,5.38,0,0,1,1.48,3.85c0,2.73-1.79,5-4,5ZM14.54,17v.53c-1.6,0-2.9,1.78-2.91,3.92a4.31,4.31,0,0,0,1.15,3.1,2.49,2.49,0,0,0,1.71.74c1.6,0,2.9-1.78,2.91-3.92a4.29,4.29,0,0,0-1.15-3.09,2.4,2.4,0,0,0-1.71-.75Z"/><path class="cls-3" d="M19.09,3.78A16.23,16.23,0,0,0,14.78,15l0,11.52c0,7.88,4.93,14.26,11,14.19s11.12-6.57,11.15-14.45L37,9.61Z"/><path class="cls-2" d="M25.67,41.25a9.89,9.89,0,0,1-7-3.07,16.28,16.28,0,0,1-4.43-11.65l0-11.52a16.75,16.75,0,0,1,4.46-11.6.52.52,0,0,1,.54-.14L37.12,9.11a.53.53,0,0,1,.37.5l0,16.67c0,8.18-5.27,14.89-11.67,15ZM19.24,4.39A15.83,15.83,0,0,0,15.31,15l0,11.53a15.17,15.17,0,0,0,4.12,10.88,8.59,8.59,0,0,0,6.38,2.76c5.82-.06,10.59-6.31,10.62-13.91l0-16.27Z"/><path class="cls-2" d="M19,20.51A1.36,1.36,0,0,0,20.2,22a1.36,1.36,0,0,0,1.25-1.45,1.37,1.37,0,0,0-1.19-1.5A1.36,1.36,0,0,0,19,20.51Z"/><path class="cls-2" d="M27.59,32.71a3,3,0,0,0,.85-.49.56.56,0,0,0,.09-.8.6.6,0,0,0-.81-.07,2.87,2.87,0,0,1-3.58-.16.61.61,0,0,0-.82.1.56.56,0,0,0,.09.8A4.06,4.06,0,0,0,27.59,32.71Z"/><path class="cls-2" d="M31,20.49a1.24,1.24,0,1,0,2.44.05A1.24,1.24,0,1,0,31,20.49Z"/><path class="cls-2" d="M25.47,28.65l1.68,0a1.33,1.33,0,0,0,1-.45,1.25,1.25,0,0,0,.27-1.06l-1.71-8a.56.56,0,0,0-.68-.44.55.55,0,0,0-.45.66l1.7,8-.14.16-1.68,0a.56.56,0,0,0-.59.55A.57.57,0,0,0,25.47,28.65Z"/><path class="cls-2" d="M17.41,18.44a.52.52,0,0,1-.3-.14.52.52,0,0,1,0-.72,4,4,0,0,1,5.58,0,.5.5,0,0,1-.64.78c-2.37-1.94-4.13-.17-4.21-.09A.48.48,0,0,1,17.41,18.44Z"/><path class="cls-2" d="M29.78,18.38a.44.44,0,0,1-.29-.14.51.51,0,0,1,0-.72,4.05,4.05,0,0,1,5.59,0,.5.5,0,0,1,.07.71.51.51,0,0,1-.72.07,3,3,0,0,0-4.21-.09A.48.48,0,0,1,29.78,18.38Z"/><path class="cls-1" d="M38,4.77a6.5,6.5,0,0,0-2.76-2.38A11.7,11.7,0,0,0,32,1.65L25.51.81A23.87,23.87,0,0,0,21.93.54a11.75,11.75,0,0,0-3.84.75A8.53,8.53,0,0,0,15.2,3a9.06,9.06,0,0,0-2.49,6.6A27.1,27.1,0,0,0,14,16.74l.7.58a9.08,9.08,0,0,1,.12-2.8,3.37,3.37,0,0,1,1.49-2.3c1.7-1,3.77.19,5.7.58a17.89,17.89,0,0,0,3.87.61,17.77,17.77,0,0,0,3.87-.61c1.93-.39,4-1.56,5.7-.58a3.37,3.37,0,0,1,1.49,2.3,11.4,11.4,0,0,1,.07,2.8l.9.42c.92-2.76,1.77-5.34,1.63-8.25a9.9,9.9,0,0,0-.41-2.35Z"/><path class="cls-2" d="M37.88,18.27a.59.59,0,0,1-.22-.05l-.9-.41a.54.54,0,0,1-.31-.51,11.11,11.11,0,0,0-.06-2.67,2.82,2.82,0,0,0-1.24-2c-1-.6-2.35-.21-3.73.21-.54.16-1.07.32-1.59.43l-.46.11a15.46,15.46,0,0,1-3.5.51,15.5,15.5,0,0,1-3.54-.51l-.46-.11c-.52-.11-1.05-.27-1.59-.43-1.37-.42-2.68-.81-3.73-.21a2.85,2.85,0,0,0-1.24,2,9,9,0,0,0-.12,2.63.52.52,0,0,1-.27.53.55.55,0,0,1-.6-.06l-.69-.58a.59.59,0,0,1-.17-.27,27.52,27.52,0,0,1-1.29-7.26,9.62,9.62,0,0,1,2.67-7A9.23,9.23,0,0,1,17.9.79a12.28,12.28,0,0,1,4-.79,24.51,24.51,0,0,1,3.65.28l6.48.84a12.4,12.4,0,0,1,3.41.78,7.07,7.07,0,0,1,3,2.57.54.54,0,0,1-.89.6A5.79,5.79,0,0,0,35,2.88a11,11,0,0,0-3.12-.7l-6.48-.84a22.92,22.92,0,0,0-3.5-.27,10.93,10.93,0,0,0-3.66.72,7.83,7.83,0,0,0-2.71,1.63,8.54,8.54,0,0,0-2.33,6.21,21.85,21.85,0,0,0,.9,5.66,8.7,8.7,0,0,1,.13-.87A3.87,3.87,0,0,1,16,11.76c1.45-.83,3-.35,4.57.11a14.6,14.6,0,0,0,1.5.41l.48.11a14.62,14.62,0,0,0,3.27.49,14.63,14.63,0,0,0,3.29-.49l.49-.11a14.43,14.43,0,0,0,1.49-.41c1.54-.46,3.13-.94,4.57-.11a3.87,3.87,0,0,1,1.75,2.66,10.11,10.11,0,0,1,.1,2.57A19.29,19.29,0,0,0,39,9.52a9,9,0,0,0-.38-2.23A.53.53,0,0,1,39,6.63a.52.52,0,0,1,.66.36A10,10,0,0,1,40,9.47a22.86,22.86,0,0,1-1.65,8.44.57.57,0,0,1-.29.32A.54.54,0,0,1,37.88,18.27Z"/><path class="cls-2" d="M26,34.7a3,3,0,0,1-1.06-.21.36.36,0,1,1,.29-.65,1.8,1.8,0,0,0,1.41,0,.36.36,0,0,1,.35.62A2,2,0,0,1,26,34.7Z"/></svg>