<svg xmlns="http://www.w3.org/2000/svg" viewBox="0 0 398.58 293.14"><defs><style>.cls-1{isolation:isolate;}.cls-2{fill:#91b5f4;}.cls-3{fill:#6280f7;}.cls-4{fill:#4b6ade;}.cls-5{fill:#3b3b3b;mix-blend-mode:screen;}.cls-6{fill:#dbdbdb;mix-blend-mode:multiply;}.cls-7{fill:#fff;}.cls-8{fill:#bac8ff;}.cls-9{fill:#4230ad;}.cls-10{fill:#543ddb;}.cls-11{fill:#f9f9f9;}</style></defs><g class="cls-1"><g id="Camada_2" data-name="Camada 2"><g id="Layer_2" data-name="Layer 2"><polygon class="cls-2" points="337.13 118.77 311.81 122.11 319.38 129.24 254.13 197.84 265.49 204.1 328 137.36 335.3 144.24 337.13 118.77"/><polygon class="cls-2" points="337.6 66.37 312.27 69.71 319.84 76.84 273.14 125.96 268.04 101.15 227.69 143.35 236.74 151.7 260.62 125.73 265.95 151.7 328.46 84.96 335.76 91.84 337.6 66.37"/><path class="cls-3" d="M133.5,144.86a17.3,17.3,0,0,1-17.28-17.28,17.11,17.11,0,0,1,3.19-10,.69.69,0,1,1,1.13.8,15.89,15.89,0,1,0,28.84,9.19V62a.7.7,0,1,1,1.39,0v65.61A17.3,17.3,0,0,1,133.5,144.86Z"/><path class="cls-3" d="M133.61,138.37a10.1,10.1,0,0,1-10.08-10.09.7.7,0,1,1,1.39,0,8.69,8.69,0,0,0,14.15,6.77.69.69,0,0,1,1,.11.7.7,0,0,1-.1,1A10.11,10.11,0,0,1,133.61,138.37Z"/><path class="cls-3" d="M165.55,130.6A9.57,9.57,0,0,1,156,121V62.26a.7.7,0,1,1,1.39,0V121a8.18,8.18,0,1,0,8.17-8.17.7.7,0,0,1,0-1.39,9.57,9.57,0,1,1,0,19.13Z"/><path class="cls-3" d="M138.78,161.22a.69.69,0,0,1-.22-1.35,19.51,19.51,0,0,0,13.37-18.55V60.69a.7.7,0,0,1,1.39,0v80.63A20.91,20.91,0,0,1,139,161.19Z"/><path class="cls-3" d="M144,64.34s-2.44-12.52-4.17-26.6-1-20,12.69-37.74H153c13.74,17.74,14.44,23.65,12.7,37.74s-4.18,26.6-4.18,26.6Z"/><path class="cls-4" d="M205.71,31.65H208a0,0,0,0,1,0,0V98.4a.83.83,0,0,1-.83.83h-.65a.83.83,0,0,1-.83-.83V31.65A0,0,0,0,1,205.71,31.65Z" transform="translate(0.07 -0.22) rotate(0.06)"/><polygon class="cls-3" points="287.05 205.96 206.82 90.49 137.73 176.28 108.05 154.94 0 293.14 232.33 292.67 293.54 235.17 287.05 205.96"/><polygon class="cls-5" points="137.73 176.28 108.05 154.94 0 293.14 112.06 292.91 129.84 260.21 112.69 272.73 171.58 171.18 158.6 177.2 206.82 90.49 137.73 176.28"/><circle class="cls-6" cx="212.92" cy="227.47" r="41.5" transform="translate(-75.22 108.93) rotate(-24.53)"/><circle class="cls-7" cx="207.75" cy="219.64" r="41.5" transform="translate(-53.11 372.45) rotate(-76.95)"/><circle class="cls-8" cx="207.75" cy="219.64" r="30.84" transform="translate(-53.27 372.17) rotate(-76.89)"/><circle class="cls-7" cx="207.75" cy="219.64" r="17.16" transform="translate(-53.48 371.82) rotate(-76.82)"/><path class="cls-9" d="M190.7,162.72H193a0,0,0,0,1,0,0v61.19a.83.83,0,0,1-.83.83h-.65a.83.83,0,0,1-.83-.83V162.72A0,0,0,0,1,190.7,162.72Z" transform="translate(-73.21 129.87) rotate(-31.73)"/><polygon class="cls-10" points="176.95 169.6 169.19 169.49 158.22 151.74 165.97 151.85 176.95 169.6"/><polygon class="cls-10" points="176.96 169.6 180.32 162.61 169.35 144.86 165.98 151.85 176.96 169.6"/><polygon class="cls-7" points="168.18 155.4 171.54 148.41 169.35 144.86 165.98 151.85 168.18 155.4"/><polygon class="cls-7" points="176.96 169.6 180.32 162.61 178.13 159.06 174.76 166.05 176.96 169.6"/><polygon class="cls-7" points="172.57 162.5 175.93 155.51 173.74 151.96 170.37 158.95 172.57 162.5"/><polygon class="cls-4" points="232.33 292.67 299.8 173.73 374.93 292.67 232.33 292.67"/><polygon class="cls-5" points="232.33 292.67 270.26 292.67 291.69 224.97 284.73 228.68 299.8 173.73 232.33 292.67"/><path class="cls-2" d="M300,208.27h98.54c-5.33-7.42-15.77-12.28-25.51-7.18,8.35-30.84-32.46-33.16-36.17-7-3.71-6.26-12.75,0-11.13,5.33-4.4-5.1-13-2.32-12.52,4.18C305.66,199.64,299.8,205.72,300,208.27Z"/><path class="cls-2" d="M22.26,139.64h85.79c0-4.87-8.12-8.58-13.22-7.42,5.8-20.17-28-28.29-29.68-2.55-2.55-6.49-13-3.71-13,3-6.72-10-21.8-6-23.88,4.4C24.69,134.77,22.26,139.64,22.26,139.64Z"/><polygon class="cls-2" points="205.38 67.39 205.38 32.78 208.09 32.78 248.07 49.91 208.07 67.41 205.38 67.39"/><circle class="cls-11" cx="152.51" cy="23.3" r="5.74"/><circle class="cls-2" cx="152.51" cy="23.3" r="4.17"/><path class="cls-3" d="M142.56,56.34c.82,4.88,1.43,8,1.43,8h17.57s.61-3.12,1.43-8Z"/><path class="cls-3" d="M142.56,56.35c-6.38-6.33-13.49-.51-11.59,8.43,1.71,8.08,7.85,16.55,14.63,19.55A1.27,1.27,0,0,0,147.37,83C146.12,76.29,142.56,56.35,142.56,56.35Z"/><path class="cls-5" d="M134.73,67.16c-1.52-7.19,2.77-12.34,7.83-10.81-6.38-6.32-13.49-.51-11.59,8.43,1.67,7.94,7.63,16.23,14.26,19.37A31.18,31.18,0,0,1,134.73,67.16Z"/><path class="cls-3" d="M163.05,56.35c6.38-6.33,13.48-.51,11.59,8.43-1.71,8.08-7.85,16.55-14.64,19.55A1.26,1.26,0,0,1,158.24,83C159.49,76.29,163.05,56.35,163.05,56.35Z"/><path class="cls-5" d="M170.87,67.16c1.52-7.19-2.77-12.34-7.82-10.81,6.38-6.32,13.48-.51,11.59,8.43C173,72.72,167,81,160.37,84.15A31.12,31.12,0,0,0,170.87,67.16Z"/><path class="cls-5" d="M145.5,30.32c-1.47-11.91-1.17-18,7.25-30.32h-.24c-13.74,17.74-14.43,23.65-12.69,37.74S144,64.34,144,64.34h6.6C149.56,58.1,146.88,41.55,145.5,30.32Z"/></g></g></g></svg>