<svg xmlns="http://www.w3.org/2000/svg" viewBox="0 0 425.94 359.05"><defs><style>.cls-1{isolation:isolate;}.cls-2{fill:#91b5f4;}.cls-3{fill:#a6b8ff;}.cls-4{fill:#6280f7;}.cls-5{fill:#fff;}.cls-6,.cls-8{fill:#ebebeb;}.cls-6,.cls-7{mix-blend-mode:multiply;}</style></defs><g class="cls-1"><g id="Camada_2" data-name="Camada 2"><g id="Layer_2" data-name="Layer 2"><polygon class="cls-2" points="254.09 355.12 296.58 314.49 299.09 332.04 309.28 322.19 310.77 289.02 277.63 289.22 267.44 299.07 284.79 302.21 235.99 349.03 254.09 355.12"/><polygon class="cls-2" points="303.98 14.96 288.96 29.47 314.53 34.08 201.38 142.95 204.85 173.58 331.9 52.19 335.59 78.04 350.61 63.53 352.8 14.66 303.98 14.96"/><polygon class="cls-2" points="337.8 94.11 327.61 103.96 344.96 107.09 213.93 232.81 225.26 245.08 356.75 119.38 359.25 136.93 369.45 127.08 370.94 93.91 337.8 94.11"/><rect class="cls-3" x="194.54" y="203.07" width="4.17" height="2.78" transform="translate(-86.77 192.26) rotate(-43.65)"/><path class="cls-3" d="M205.24,198.16l-1.92-2,6.15-5.87,1.92,2Zm12.3-11.72-1.92-2,6.14-5.86,1.92,2Zm12.29-11.73-1.92-2,6.14-5.87,1.93,2ZM242.12,163l-1.92-2,6.15-5.86,1.92,2Zm12.3-11.72-1.93-2,6.15-5.87,1.92,2Zm12.29-11.73-1.92-2,6.14-5.86,1.93,2ZM279,127.81l-1.92-2,6.15-5.86,1.92,2Zm12.3-11.73-1.92-2,6.14-5.86,1.92,2Zm12.29-11.72-1.92-2,6.15-5.86,1.92,2Zm12.29-11.73-1.92-2,6.15-5.86,1.92,2Zm12.29-11.72-1.92-2L332.4,73l1.92,2Zm12.3-11.73-1.92-2,6.14-5.87,1.93,2Zm12.29-11.73-1.92-2L357,49.58l1.92,2Zm12.3-11.72-1.93-2,6.15-5.87,1.92,2ZM377.35,34l-1.92-2,6.14-5.86,1.93,2Z"/><polygon class="cls-3" points="387.42 31.53 385.57 30.61 391.56 18.53 379.2 23.94 378.38 22.05 395.91 14.38 387.42 31.53"/><path class="cls-3" d="M202.59,340.36l-1.92-2,6.15-5.86,1.92,2Zm12.29-11.73-1.92-2,6.15-5.86,1.92,2Zm12.29-11.72-1.92-2L231.4,309l1.92,2Zm12.3-11.73-1.92-2,6.14-5.87,1.93,2Zm12.29-11.73-1.92-2,6.15-5.86,1.92,2Zm12.3-11.72-1.93-2,6.15-5.87,1.92,2ZM276.35,270l-1.92-2,6.14-5.86,1.93,2Z"/><polygon class="cls-3" points="286.42 267.53 284.57 266.62 290.56 254.53 278.2 259.94 277.38 258.05 294.91 250.38 286.42 267.53"/><rect class="cls-4" x="82.42" y="61.79" width="3.25" height="22.49"/><rect class="cls-4" x="55.66" y="65.7" width="3.25" height="22.49" transform="translate(-22.29 23.38) rotate(-19.39)"/><rect class="cls-4" x="32.01" y="82.39" width="3.25" height="22.49" transform="translate(-54.63 47.72) rotate(-42.76)"/><path class="cls-4" d="M140.12,106l0,0h-.09c-33.36-41.41-85-40.2-111.82,0h-.08l0,0,0,.06h.08c26.78,40.2,78.46,41.41,111.82,0h.09Z"/><path class="cls-2" d="M82.15,133.9C62.34,133.9,44,123.77,31.58,106,44,88.28,62.34,78.15,82.15,78.15c20,0,39.2,9.88,54.36,27.87C121.35,124,102.12,133.9,82.15,133.9Z"/><circle class="cls-4" cx="84.05" cy="106.02" r="14.03" transform="translate(-38.45 163.46) rotate(-76.72)"/><path class="cls-4" d="M84.05,83.53A22.49,22.49,0,1,0,106.54,106,22.49,22.49,0,0,0,84.05,83.53Zm1.29,41.21v-3.35H82.79v3.35a18.76,18.76,0,0,1-17.46-17.38h3.26v-2.55H65.33a18.75,18.75,0,0,1,17.44-17.5v3.41h2.55V87.31a18.75,18.75,0,0,1,17.45,17.53H99.29v2.55h3.47A18.76,18.76,0,0,1,85.34,124.74Z"/><polygon class="cls-2" points="187.12 34.43 117.56 34.43 61.91 349.54 242.76 349.54 187.12 34.43"/><path class="cls-4" d="M222.94,277.92c0,.87-40.17,80-40.17,80H173s41.56-79.12,41.56-80Z"/><path class="cls-4" d="M222.07,277.92c0,.87,39.47,80,39.47,80h9.74s-40.87-79.12-40.87-80Z"/><path class="cls-4" d="M0,359.05H282.88s-36.17-12.53-39.42-12.53-24.58,2.32-34.78-1.85S143.29,318.24,132.16,322s-70,22.72-71.87,22.26S48.69,334,45.91,334.93,9.27,353,9.27,353h0a3.83,3.83,0,0,0-5,.82Z"/><polygon class="cls-4" points="151.99 0 108.51 38.61 196.16 38.61 151.99 0"/><path class="cls-2" d="M1.22,286.07H71.13c-.18-8-9.22-8.35-12-5.92C49,250.76,25.74,259.28,24,275.46,8,270.07.7,285,1.22,286.07Z"/><path class="cls-2" d="M302.82,268.39H425.94c-.7-9.05-12.75-11.37-20.41-7.19-.23-20.41-32.46-28.06-40.8-8.35-4.41-3.71-15.08-.23-16.23,4.64-13-7.89-24.58,1.39-27.13,6.72C314.41,261,302.82,268.39,302.82,268.39Z"/><circle class="cls-4" cx="222.94" cy="268.53" r="12.69"/><circle class="cls-5" cx="222.94" cy="268.53" r="6.96"/><polygon class="cls-6" points="187.73 38.74 116.48 38.49 61.73 350.99 187.73 38.74"/><path class="cls-4" d="M100.86,52.52V98.43H202.94V52.52Zm32.35,42H103.82v-38h29.39Zm33.39,0H137.21v-38H166.6Zm32.86,0H171.12v-38h28.34Z"/><path class="cls-2" d="M30.84,175.64H138.66c-.7-7.88-23.65-6.73-23.65-6.73-3.48-16-22.73-18.78-32.7-6.49-15.07-7.65-33.15-.23-36.17,7.42C39.42,167.52,30.84,175.64,30.84,175.64Z"/><polygon class="cls-4" points="125.56 271.6 118.92 255.03 52.33 284.74 56.9 296.14 125.56 271.6"/><polygon class="cls-2" points="121.74 262.08 119.89 257.45 52.55 285.3 53.83 288.48 121.74 262.08"/><polygon class="cls-4" points="238.73 248.7 216.54 193.39 114.77 244.7 129.71 281.93 238.73 248.7"/><polygon class="cls-2" points="222.41 208.02 218.87 199.2 116.13 248.08 118.51 254.02 222.41 208.02"/><polygon class="cls-4" points="362.76 221.43 325.04 127.39 214.01 186.91 241.37 255.13 362.76 221.43"/><polygon class="cls-6" points="325.03 127.39 325.04 127.39 357.06 207.23 236.46 242.88 241.37 255.13 362.76 221.43 325.04 127.39 325.03 127.39"/><g class="cls-7"><polygon class="cls-8" points="127.09 275.4 129.71 281.93 238.73 248.7 235.75 241.26 127.09 275.4"/><polygon class="cls-8" points="54.8 290.9 56.9 296.14 125.56 271.6 123.36 266.1 54.8 290.9"/></g><polygon class="cls-2" points="334.45 150.85 328.49 136 216.51 193.16 220.22 202.4 334.45 150.85"/><rect class="cls-4" x="343.46" y="118.72" width="12.06" height="106.89" transform="translate(-38.97 142.48) rotate(-21.86)"/><rect class="cls-2" x="329.14" y="127.75" width="12.06" height="17.39" transform="matrix(0.93, -0.37, 0.37, 0.93, -26.7, 134.58)"/></g></g></g></svg>